<svg xmlns="http://www.w3.org/2000/svg" width="565.282" height="87.122" viewBox="0 0 565.282 87.122"><g transform="translate(-56.147 -63.61)"><path d="M180.406,113.644H166.522l-2.226,6.572h-9.485l13.46-37.2h10.493l13.46,37.2h-9.592ZM173.464,93.03l-4.557,13.619h9.168Z" fill="#fff"/><path d="M205.525,83.014V113.22H217.4v7H196.463v-37.2Z" fill="#fff"/><path d="M238.1,82.59c8.85,0,15.527,4.981,17.647,13.037h-9.963a8.194,8.194,0,0,0-7.79-4.77c-5.564,0-9.38,4.134-9.38,10.7s3.816,10.705,9.38,10.705a8.193,8.193,0,0,0,7.79-4.769h9.963c-2.12,8.055-8.8,12.983-17.647,12.983-10.97,0-18.706-7.79-18.706-18.919S227.132,82.59,238.1,82.59Z" fill="#fff"/><path d="M284.476,104.9h-14.1v15.316h-9.062v-37.2h9.062V97.588h14.1V83.014h9.062v37.2h-9.062Z" fill="#fff"/><path d="M324.05,90.274H310.325V97.8H322.46v6.995H310.325v8.161H324.05v7.26H301.263v-37.2H324.05Z" fill="#fff"/><path d="M331.107,83.014h10.705l10.439,25.755,10.334-25.755h10.652v37.2h-9.062V97.9l-8.32,22.311h-7.313l-8.373-22.364v22.364h-9.062Z" fill="#fff"/><path d="M381.017,83.014h9.063v37.2h-9.063Z" fill="#fff"/><path d="M411.013,120.587c-8,0-14.255-3.975-14.52-11.5h9.645a4.265,4.265,0,0,0,4.611,4.239c2.649,0,4.345-1.324,4.345-3.5,0-6.89-18.6-3.18-18.495-16.375,0-7.048,5.776-10.97,13.567-10.97,8.108,0,13.566,4.027,13.937,11.129h-9.8a4.028,4.028,0,0,0-4.293-3.869c-2.173-.053-3.815,1.06-3.815,3.391,0,6.466,18.389,3.551,18.389,16C424.58,115.393,419.7,120.587,411.013,120.587Z" fill="#fff"/><path d="M427.6,83.014h28.775v7.26h-9.857v29.942H437.46V90.274H427.6Z" fill="#fff"/><path d="M483.594,90.274H469.87V97.8H482v6.995H469.87v8.161h13.724v7.26H460.807v-37.2h22.787Z" fill="#fff"/><path d="M523.931,83.014v37.2H514.87L499.713,97.269v22.947h-9.062v-37.2h9.062l15.157,23.052V83.014Z" fill="#fff"/><path d="M531.132,111h9.38v9.221h-9.38Z" fill="#fff"/><path d="M571.509,113.644H557.625l-2.225,6.572h-9.486l13.46-37.2h10.493l13.461,37.2h-9.593ZM564.568,93.03l-4.558,13.619h9.168Z" fill="#fff"/><path d="M620.719,94.778H610.7c-1.378-2.49-3.922-3.815-7.314-3.815-5.829,0-9.7,4.133-9.7,10.6,0,6.89,3.922,10.917,10.44,10.917a8.912,8.912,0,0,0,9.009-6.571h-11.5V99.23h19.714v8.426a18.219,18.219,0,0,1-17.912,12.824c-11.129,0-18.972-7.79-18.972-18.919s7.79-18.971,18.919-18.971C612.292,82.59,618.758,87.147,620.719,94.778Z" fill="#fff"/><path d="M81.389,146.56c5.759-4.576,10.482-8.451,14.843-12.2,2.793-2.376,5.434-4.677,7.813-6.844,2.678-2.425,5.132-4.74,7.294-6.892,2.391-2.376,4.49-4.6,6.239-6.627a54.144,54.144,0,0,0,4.615-6.038,26.9,26.9,0,0,0,1.524-2.692,13.007,13.007,0,0,0,.918-2.428,6.808,6.808,0,0,0,.239-2.126,4.114,4.114,0,0,0-.514-1.771,4.5,4.5,0,0,0-1.447-1.473,8.585,8.585,0,0,0-2.29-.993,17.45,17.45,0,0,0-3.033-.566,35.687,35.687,0,0,0-3.684-.176c-1.3,0-2.742.049-4.278.161-1.472.117-3.069.265-4.754.478-3.119.391-6.665.958-10.538,1.7-6.352,1.208-13.724,2.877-22.541,5.133-5.407,1.383-10.479,2.741-14.954,3.949h-.015l-.679.19A43.462,43.462,0,0,0,81.389,146.56Z" fill="#fff"/><path d="M143.136,107.112a43.478,43.478,0,0,0-1.93-12.838c-11.92,16.241-42.262,40.9-58.393,52.961a43.51,43.51,0,0,0,60.323-40.123Z" fill="#fff"/><path d="M94.785,88.691c7.6-2.58,14.553-4.705,20.668-6.314a117.617,117.617,0,0,1,17.288-3.443,43.453,43.453,0,0,0-76.423,24.534c5.416-2.336,11.52-4.822,17.676-7.192C81.151,93.5,88.158,90.943,94.785,88.691Z" fill="#fff"/><path d="M355.168,142.943c0,4.752-3.1,7.635-8.14,7.635h-4.775V135.242h4.775C352.067,135.242,355.168,138.19,355.168,142.943Zm-8.14,5.984c4,0,6.095-2.244,6.095-5.984s-2.09-6.073-6.095-6.073h-2.773v12.057Z" fill="#0089c0"/><path d="M366.608,136.87h-6.249V142h5.589v1.65h-5.589v5.28h6.249v1.651h-8.251V135.219h8.251Z" fill="#0089c0"/><path d="M375.055,150.732c-3.08,0-5.259-1.717-5.3-4.247h2.135a2.841,2.841,0,0,0,3.168,2.553c1.937,0,3.08-1.1,3.08-2.553,0-4.137-8.3-1.5-8.3-7.2,0-2.53,2.047-4.246,5.083-4.246,2.927,0,4.841,1.606,5.083,3.938h-2.2a2.777,2.777,0,0,0-2.97-2.222c-1.65-.044-2.948.814-2.948,2.464,0,3.961,8.273,1.5,8.273,7.173C380.16,148.576,378.377,150.732,375.055,150.732Z" fill="#0089c0"/><path d="M383.656,135.242h2v15.336h-2Z" fill="#0089c0"/><path d="M403.634,139.686h-2.4a4.895,4.895,0,0,0-4.665-2.816c-3.235,0-5.655,2.332-5.655,6.029,0,3.674,2.42,6.007,5.655,6.007a5.171,5.171,0,0,0,5.39-4.973h-6.117V142.3H404.1v1.54a7.439,7.439,0,0,1-7.525,6.866,7.823,7.823,0,0,1,0-15.645A7.252,7.252,0,0,1,403.634,139.686Z" fill="#0089c0"/><path d="M419.341,135.219v15.359h-2l-8.053-12.212v12.212h-2V135.219h2l8.053,12.191V135.219Z" fill="#0089c0"/><path d="M422.662,148.113h2.4v2.465h-2.4Z" fill="#0089c0"/><path d="M447.7,142.943c0,4.752-3.1,7.635-8.141,7.635h-4.774V135.242h4.774C444.6,135.242,447.7,138.19,447.7,142.943Zm-8.141,5.984c4,0,6.1-2.244,6.1-5.984s-2.09-6.073-6.1-6.073h-2.772v12.057Z" fill="#009d9f"/><path d="M459.138,136.87h-6.249V142h5.589v1.65h-5.589v5.28h6.249v1.651h-8.251V135.219h8.251Z" fill="#009d9f"/><path d="M473.285,135.242H475.4l-5.787,15.336H467.3l-5.787-15.336h2.135l4.818,13.224Z" fill="#009d9f"/><path d="M486.4,136.87h-6.249V142h5.589v1.65h-5.589v5.28H486.4v1.651h-8.251V135.219H486.4Z" fill="#009d9f"/><path d="M491.983,135.242V148.95h5.369v1.628h-7.371V135.242Z" fill="#009d9f"/><path d="M506.988,150.732a7.835,7.835,0,1,1,7.7-7.833A7.564,7.564,0,0,1,506.988,150.732Zm0-1.738c3.234,0,5.654-2.355,5.654-6.1,0-3.763-2.42-6.1-5.654-6.1s-5.655,2.333-5.655,6.1C501.333,146.639,503.752,148.994,506.988,148.994Z" fill="#009d9f"/><path d="M522.828,144.175h-2.95v6.4h-2V135.242h4.952c3.608,0,5.3,1.98,5.3,4.488C528.13,142.062,526.634,144.175,522.828,144.175Zm0-1.65c2.288,0,3.255-1.078,3.255-2.795,0-1.782-.967-2.838-3.255-2.838h-2.95v5.633Z" fill="#009d9f"/><path d="M527.226,148.113h2.4v2.465h-2.4Z" fill="#009d9f"/><path d="M552.263,142.943c0,4.752-3.1,7.635-8.14,7.635h-4.775V135.242h4.775C549.162,135.242,552.263,138.19,552.263,142.943Zm-8.14,5.984c4,0,6.094-2.244,6.094-5.984s-2.09-6.073-6.094-6.073H541.35v12.057Z" fill="#008f64"/><path d="M563.7,136.87h-6.249V142h5.588v1.65h-5.588v5.28H563.7v1.651h-8.251V135.219H563.7Z" fill="#008f64"/><path d="M572.238,144.175H569.29v6.4h-2V135.242h4.95c3.608,0,5.3,1.98,5.3,4.488C577.541,142.062,576.044,144.175,572.238,144.175Zm0-1.65c2.288,0,3.257-1.078,3.257-2.795,0-1.782-.969-2.838-3.257-2.838H569.29v5.633Z" fill="#008f64"/><path d="M582.578,135.242V148.95h5.369v1.628h-7.371V135.242Z" fill="#008f64"/><path d="M597.583,150.732a7.835,7.835,0,1,1,7.7-7.833A7.565,7.565,0,0,1,597.583,150.732Zm0-1.738c3.234,0,5.654-2.355,5.654-6.1,0-3.763-2.42-6.1-5.654-6.1s-5.656,2.333-5.656,6.1C591.927,146.639,594.347,148.994,597.583,148.994Z" fill="#008f64"/><path d="M607.2,135.242h2.222l3.785,7.767,3.784-7.767h2.222l-4.995,9.549v5.787h-2v-5.787Z" fill="#008f64"/><path d="M619.031,148.113h2.4v2.465h-2.4Z" fill="#008f64"/></g></svg>