{
    "asset": {
        "generator": "FBX2glTF",
        "version": "2.0"
    },
    "scene": 0,
    "buffers": [
        {
            "byteLength": 3204816,
            "uri": "buffer.bin"
        }
    ],
    "bufferViews": [
        {
            "buffer": 0,
            "byteLength": 500,
            "byteOffset": 0
        },
        {
            "buffer": 0,
            "byteLength": 1500,
            "byteOffset": 500
        },
        {
            "buffer": 0,
            "byteLength": 2000,
            "byteOffset": 2000
        },
        {
            "buffer": 0,
            "byteLength": 101832,
            "byteOffset": 4000,
            "target": 34963
        },
        {
            "buffer": 0,
            "byteLength": 199260,
            "byteOffset": 105832,
            "target": 34962
        },
        {
            "buffer": 0,
            "byteLength": 199260,
            "byteOffset": 305092,
            "target": 34962
        },
        {
            "buffer": 0,
            "byteLength": 132840,
            "byteOffset": 504352,
            "target": 34962
        },
        {
            "buffer": 0,
            "byteLength": 132840,
            "byteOffset": 637192,
            "target": 34962
        },
        {
            "buffer": 0,
            "byteLength": 265680,
            "byteOffset": 770032,
            "target": 34962
        },
        {
            "buffer": 0,
            "byteLength": 177234,
            "byteOffset": 1035712,
            "target": 34963
        },
        {
            "buffer": 0,
            "byteLength": 369072,
            "byteOffset": 1212948,
            "target": 34962
        },
        {
            "buffer": 0,
            "byteLength": 369072,
            "byteOffset": 1582020,
            "target": 34962
        },
        {
            "buffer": 0,
            "byteLength": 246048,
            "byteOffset": 1951092,
            "target": 34962
        },
        {
            "buffer": 0,
            "byteLength": 246048,
            "byteOffset": 2197140,
            "target": 34962
        },
        {
            "buffer": 0,
            "byteLength": 492096,
            "byteOffset": 2443188,
            "target": 34962
        },
        {
            "buffer": 0,
            "byteLength": 25908,
            "byteOffset": 2935284,
            "target": 34963
        },
        {
            "buffer": 0,
            "byteLength": 52164,
            "byteOffset": 2961192,
            "target": 34962
        },
        {
            "buffer": 0,
            "byteLength": 52164,
            "byteOffset": 3013356,
            "target": 34962
        },
        {
            "buffer": 0,
            "byteLength": 34776,
            "byteOffset": 3065520,
            "target": 34962
        },
        {
            "buffer": 0,
            "byteLength": 34776,
            "byteOffset": 3100296,
            "target": 34962
        },
        {
            "buffer": 0,
            "byteLength": 69552,
            "byteOffset": 3135072,
            "target": 34962
        },
        {
            "buffer": 0,
            "byteLength": 64,
            "byteOffset": 3204624
        },
        {
            "buffer": 0,
            "byteLength": 64,
            "byteOffset": 3204688
        },
        {
            "buffer": 0,
            "byteLength": 64,
            "byteOffset": 3204752
        }
    ],
    "scenes": [
        {
            "name": "Root Scene",
            "nodes": [
                0
            ]
        }
    ],
    "accessors": [
        {
            "componentType": 5126,
            "type": "SCALAR",
            "count": 125,
            "bufferView": 0,
            "byteOffset": 0,
            "min": [
                0.0
            ],
            "max": [
                5.16666650772095
            ]
        },
        {
            "componentType": 5126,
            "type": "VEC3",
            "count": 125,
            "bufferView": 1,
            "byteOffset": 0
        },
        {
            "componentType": 5126,
            "type": "VEC4",
            "count": 125,
            "bufferView": 2,
            "byteOffset": 0
        },
        {
            "componentType": 5123,
            "type": "SCALAR",
            "count": 50916,
            "bufferView": 3,
            "byteOffset": 0
        },
        {
            "componentType": 5126,
            "type": "VEC3",
            "count": 16605,
            "bufferView": 4,
            "byteOffset": 0,
            "min": [
                -0.302499979734421,
                -0.199500009417534,
                0.0
            ],
            "max": [
                0.302499979734421,
                0.199500009417534,
                0.322999984025955
            ]
        },
        {
            "componentType": 5126,
            "type": "VEC3",
            "count": 16605,
            "bufferView": 5,
            "byteOffset": 0
        },
        {
            "componentType": 5126,
            "type": "VEC2",
            "count": 16605,
            "bufferView": 6,
            "byteOffset": 0
        },
        {
            "componentType": 5123,
            "type": "VEC4",
            "count": 16605,
            "bufferView": 7,
            "byteOffset": 0
        },
        {
            "componentType": 5126,
            "type": "VEC4",
            "count": 16605,
            "bufferView": 8,
            "byteOffset": 0
        },
        {
            "componentType": 5123,
            "type": "SCALAR",
            "count": 88617,
            "bufferView": 9,
            "byteOffset": 0
        },
        {
            "componentType": 5126,
            "type": "VEC3",
            "count": 30756,
            "bufferView": 10,
            "byteOffset": 0,
            "min": [
                -0.307109892368317,
                -0.205077722668648,
                -0.0175000000745058
            ],
            "max": [
                0.307109892368317,
                0.205077722668648,
                0.028499998152256
            ]
        },
        {
            "componentType": 5126,
            "type": "VEC3",
            "count": 30756,
            "bufferView": 11,
            "byteOffset": 0
        },
        {
            "componentType": 5126,
            "type": "VEC2",
            "count": 30756,
            "bufferView": 12,
            "byteOffset": 0
        },
        {
            "componentType": 5123,
            "type": "VEC4",
            "count": 30756,
            "bufferView": 13,
            "byteOffset": 0
        },
        {
            "componentType": 5126,
            "type": "VEC4",
            "count": 30756,
            "bufferView": 14,
            "byteOffset": 0
        },
        {
            "componentType": 5123,
            "type": "SCALAR",
            "count": 12954,
            "bufferView": 15,
            "byteOffset": 0
        },
        {
            "componentType": 5126,
            "type": "VEC3",
            "count": 4347,
            "bufferView": 16,
            "byteOffset": 0,
            "min": [
                -0.30349999666214,
                -0.202500000596046,
                -0.00249999994412065
            ],
            "max": [
                0.30349999666214,
                0.202500000596046,
                0.294999986886978
            ]
        },
        {
            "componentType": 5126,
            "type": "VEC3",
            "count": 4347,
            "bufferView": 17,
            "byteOffset": 0
        },
        {
            "componentType": 5126,
            "type": "VEC2",
            "count": 4347,
            "bufferView": 18,
            "byteOffset": 0
        },
        {
            "componentType": 5123,
            "type": "VEC4",
            "count": 4347,
            "bufferView": 19,
            "byteOffset": 0
        },
        {
            "componentType": 5126,
            "type": "VEC4",
            "count": 4347,
            "bufferView": 20,
            "byteOffset": 0
        },
        {
            "componentType": 5126,
            "type": "MAT4",
            "count": 1,
            "bufferView": 21,
            "byteOffset": 0
        },
        {
            "componentType": 5126,
            "type": "MAT4",
            "count": 1,
            "bufferView": 22,
            "byteOffset": 0
        },
        {
            "componentType": 5126,
            "type": "MAT4",
            "count": 1,
            "bufferView": 23,
            "byteOffset": 0
        }
    ],
    "samplers": [
        {}
    ],
    "materials": [
        {
            "name": "plastic",
            "alphaMode": "OPAQUE",
            "extras": {
                "fromFBX": {
                    "shadingModel": "Phong",
                    "isTruePBR": false
                }
            },
            "pbrMetallicRoughness": {
                "baseColorFactor": [
                    0.152941182255745,
                    0.505882382392883,
                    0.733333349227905,
                    1.0
                ],
                "metallicFactor": 0.400000005960464,
                "roughnessFactor": 0.511081099510193
            }
        },
        {
            "name": "Mat",
            "alphaMode": "OPAQUE",
            "extras": {
                "fromFBX": {
                    "shadingModel": "Phong",
                    "isTruePBR": false
                }
            },
            "pbrMetallicRoughness": {
                "baseColorFactor": [
                    0.972549021244049,
                    0.976470589637756,
                    0.984313726425171,
                    1.0
                ],
                "metallicFactor": 0.400000005960464,
                "roughnessFactor": 0.498046934604645
            }
        }
    ],
    "meshes": [
        {
            "name": "behaelter_box",
            "primitives": [
                {
                    "material": 0,
                    "mode": 4,
                    "attributes": {
                        "JOINTS_0": 7,
                        "NORMAL": 5,
                        "POSITION": 4,
                        "TEXCOORD_0": 6,
                        "WEIGHTS_0": 8
                    },
                    "indices": 3
                }
            ]
        },
        {
            "name": "deckel_top",
            "primitives": [
                {
                    "material": 0,
                    "mode": 4,
                    "attributes": {
                        "JOINTS_0": 13,
                        "NORMAL": 11,
                        "POSITION": 10,
                        "TEXCOORD_0": 12,
                        "WEIGHTS_0": 14
                    },
                    "indices": 9
                }
            ]
        },
        {
            "name": "wanne",
            "primitives": [
                {
                    "material": 1,
                    "mode": 4,
                    "attributes": {
                        "JOINTS_0": 19,
                        "NORMAL": 17,
                        "POSITION": 16,
                        "TEXCOORD_0": 18,
                        "WEIGHTS_0": 20
                    },
                    "indices": 15
                }
            ]
        }
    ],
    "skins": [
        {
            "joints": [
                4
            ],
            "inverseBindMatrices": 21,
            "skeleton": 4
        },
        {
            "joints": [
                5
            ],
            "inverseBindMatrices": 22,
            "skeleton": 5
        },
        {
            "joints": [
                4
            ],
            "inverseBindMatrices": 23,
            "skeleton": 4
        }
    ],
    "animations": [
        {
            "name": "Cinema_4D_Basis",
            "channels": [
                {
                    "sampler": 0,
                    "target": {
                        "node": 5,
                        "path": "translation"
                    }
                },
                {
                    "sampler": 1,
                    "target": {
                        "node": 5,
                        "path": "rotation"
                    }
                }
            ],
            "samplers": [
                {
                    "input": 0,
                    "interpolation": "LINEAR",
                    "output": 1
                },
                {
                    "input": 0,
                    "interpolation": "LINEAR",
                    "output": 2
                }
            ]
        }
    ],
    "nodes": [
        {
            "name": "RootNode",
            "translation": [
                0.0,
                0.0,
                0.0
            ],
            "rotation": [
                0.0,
                0.0,
                0.0,
                1.0
            ],
            "scale": [
                1.0,
                1.0,
                1.0
            ],
            "children": [
                1,
                2
            ]
        },
        {
            "name": "HL",
            "translation": [
                0.0,
                0.0,
                0.0
            ],
            "rotation": [
                0.0,
                0.0,
                0.0,
                1.0
            ],
            "scale": [
                1.0,
                1.0,
                1.0
            ]
        },
        {
            "name": "COOLBOX__36_412_stp",
            "translation": [
                0.0,
                0.0199999995529652,
                -9.88219773799546e-18
            ],
            "rotation": [
                0.0,
                0.0,
                0.0,
                1.0
            ],
            "scale": [
                1.0,
                1.0,
                1.0
            ],
            "children": [
                3,
                7,
                8,
                9
            ]
        },
        {
            "name": "root",
            "translation": [
                0.0,
                -0.0199999995529652,
                9.88219773799546e-18
            ],
            "rotation": [
                0.0,
                0.0,
                0.0,
                1.0
            ],
            "scale": [
                1.0,
                1.0,
                1.0
            ],
            "children": [
                4
            ]
        },
        {
            "name": "behaelter",
            "translation": [
                0.0,
                0.0,
                0.0
            ],
            "rotation": [
                0.0,
                0.0,
                0.0,
                1.0
            ],
            "scale": [
                1.0,
                1.0,
                1.0
            ],
            "children": [
                5
            ]
        },
        {
            "name": "deckel",
            "translation": [
                0.0,
                0.0739291682839394,
                -0.369922161102295
            ],
            "rotation": [
                -0.70710676908493,
                -0.0,
                0.0,
                0.70710676908493
            ],
            "scale": [
                1.0,
                1.0,
                1.0
            ],
            "children": [
                6
            ]
        },
        {
            "name": "deckel_end",
            "translation": [
                0.226907402276993,
                0.0,
                0.0
            ],
            "rotation": [
                0.0,
                0.0,
                0.0,
                1.0
            ],
            "scale": [
                1.0,
                1.0,
                1.0
            ]
        },
        {
            "name": "behaelter_box",
            "translation": [
                0.0,
                0.141388535499573,
                0.0
            ],
            "rotation": [
                0.70710676908493,
                0.0,
                0.0,
                0.70710676908493
            ],
            "scale": [
                1.0,
                1.0,
                1.0
            ],
            "mesh": 0,
            "skin": 0
        },
        {
            "name": "deckel_top",
            "translation": [
                0.0,
                0.141388535499573,
                0.0
            ],
            "rotation": [
                0.70710676908493,
                0.0,
                0.0,
                0.70710676908493
            ],
            "scale": [
                1.0,
                1.0,
                1.0
            ],
            "mesh": 1,
            "skin": 1
        },
        {
            "name": "wanne",
            "translation": [
                0.0,
                0.141388535499573,
                0.0
            ],
            "rotation": [
                0.70710676908493,
                0.0,
                0.0,
                0.70710676908493
            ],
            "scale": [
                1.0,
                1.0,
                1.0
            ],
            "mesh": 2,
            "skin": 2
        }
    ]
}